<?xml version="1.0" standalone="no"?>
<!DOCTYPE svg PUBLIC "-//W3C//DTD SVG 1.1//EN" "http://www.w3.org/Graphics/SVG/1.1/DTD/svg11.dtd">
<svg version="1.1" id="Layer_1" xmlns="http://www.w3.org/2000/svg" xmlns:xlink="http://www.w3.org/1999/xlink" x="0px" y="0px" viewBox="0 0 2500 2500" style="enable-background:new 0 0 2500 2500;" xml:space="preserve" width="2500" height="2500">
<style type="text/css">
	.st0{fill:#030202;}
	.st1{fill:#DA0201;}
	.st2{fill:#006E2F;}
	.st3{fill:#FCCD04;}
	.st4{fill:none;}
</style>
<g>
	<g>
		<path d="M553.75,1608.3c-2.65,4.78-6.72,8.63-12.2,11.57c-5.49,2.93-12.3,4.4-20.44,4.4h-15.04v35.76H481.8v-99.62h39.31    c7.95,0,14.66,1.37,20.15,4.12c5.49,2.75,9.6,6.53,12.35,11.35c2.74,4.83,4.12,10.36,4.12,16.6    C557.72,1598.25,556.39,1603.52,553.75,1608.3z M529.62,1601.7c2.27-2.17,3.41-5.25,3.41-9.22s-1.14-7.05-3.41-9.22    c-2.27-2.17-5.73-3.26-10.36-3.26h-13.2v24.98h13.2C523.9,1604.96,527.35,1603.88,529.62,1601.7z"/>
		<path d="M632.36,1642.43h-37.18l-5.96,17.6h-25.4l36.04-99.62h28.1l36.05,99.62h-25.69L632.36,1642.43z M626.12,1623.69    l-12.35-36.47l-12.2,36.47H626.12z"/>
		<path d="M732.69,1660.02l-33.49-43.99v43.99h-24.27v-99.62h24.27v43.71l33.21-43.71h28.52l-38.6,48.82l40.02,50.8H732.69z"/>
		<path d="M798.11,1560.4v99.62h-24.27v-99.62H798.11z"/>
		<path d="M832.17,1657.47c-5.77-2.36-10.38-5.86-13.84-10.5c-3.45-4.63-5.27-10.22-5.46-16.75h25.83c0.38,3.69,1.65,6.51,3.83,8.44    c2.18,1.94,5.01,2.91,8.51,2.91c3.59,0,6.43-0.83,8.51-2.48c2.08-1.65,3.12-3.95,3.12-6.88c0-2.46-0.83-4.49-2.48-6.1    c-1.66-1.61-3.69-2.93-6.1-3.97c-2.41-1.04-5.84-2.22-10.29-3.55c-6.43-1.99-11.69-3.97-15.75-5.96c-4.07-1.99-7.57-4.92-10.5-8.8    c-2.93-3.88-4.4-8.94-4.4-15.18c0-9.27,3.36-16.53,10.08-21.78c6.72-5.25,15.47-7.88,26.25-7.88c10.97,0,19.82,2.63,26.54,7.88    c6.72,5.25,10.31,12.56,10.79,21.93h-26.25c-0.19-3.22-1.37-5.75-3.55-7.59c-2.18-1.84-4.97-2.77-8.37-2.77    c-2.93,0-5.3,0.78-7.1,2.34c-1.8,1.56-2.7,3.81-2.7,6.74c0,3.22,1.51,5.72,4.54,7.52c3.03,1.8,7.76,3.74,14.19,5.82    c6.43,2.18,11.66,4.26,15.68,6.24c4.02,1.99,7.5,4.87,10.43,8.66c2.93,3.78,4.4,8.66,4.4,14.62c0,5.68-1.44,10.83-4.33,15.47    c-2.89,4.64-7.07,8.33-12.56,11.07c-5.49,2.75-11.97,4.12-19.44,4.12C844.47,1661.02,837.94,1659.83,832.17,1657.47z"/>
		<path d="M974.65,1560.4v19.44h-26.4v80.18h-24.27v-80.18h-26.4v-19.44H974.65z"/>
		<path d="M1048.86,1642.43h-37.18l-5.96,17.6h-25.4l36.04-99.62h28.1l36.05,99.62h-25.69L1048.86,1642.43z M1042.62,1623.69    l-12.35-36.47l-12.2,36.47H1042.62z"/>
		<path d="M1180.56,1660.02h-24.27l-40.59-61.45v61.45h-24.27v-99.62h24.27l40.59,61.73v-61.73h24.27V1660.02z"/>
		<path d="M1244.7,1657.47c-5.77-2.36-10.38-5.86-13.84-10.5c-3.45-4.63-5.27-10.22-5.46-16.75h25.83c0.38,3.69,1.65,6.51,3.83,8.44    c2.18,1.94,5.01,2.91,8.51,2.91c3.59,0,6.43-0.83,8.51-2.48c2.08-1.65,3.12-3.95,3.12-6.88c0-2.46-0.83-4.49-2.48-6.1    c-1.66-1.61-3.69-2.93-6.1-3.97c-2.41-1.04-5.84-2.22-10.29-3.55c-6.43-1.99-11.69-3.97-15.75-5.96c-4.07-1.99-7.57-4.92-10.5-8.8    c-2.93-3.88-4.4-8.94-4.4-15.18c0-9.27,3.36-16.53,10.08-21.78c6.72-5.25,15.47-7.88,26.25-7.88c10.97,0,19.82,2.63,26.54,7.88    c6.72,5.25,10.31,12.56,10.79,21.93h-26.25c-0.19-3.22-1.37-5.75-3.55-7.59c-2.18-1.84-4.97-2.77-8.37-2.77    c-2.93,0-5.3,0.78-7.1,2.34c-1.8,1.56-2.7,3.81-2.7,6.74c0,3.22,1.51,5.72,4.54,7.52c3.03,1.8,7.76,3.74,14.19,5.82    c6.43,2.18,11.66,4.26,15.68,6.24c4.02,1.99,7.5,4.87,10.43,8.66c2.93,3.78,4.4,8.66,4.4,14.62c0,5.68-1.44,10.83-4.33,15.47    c-2.89,4.64-7.07,8.33-12.56,11.07c-5.49,2.75-11.97,4.12-19.44,4.12C1257,1661.02,1250.47,1659.83,1244.7,1657.47z"/>
		<path d="M1387.17,1560.4v19.44h-26.4v80.18h-24.27v-80.18h-26.39v-19.44H1387.17z"/>
		<path d="M1423.22,1560.4v59.6c0,5.96,1.46,10.55,4.4,13.77c2.93,3.22,7.24,4.82,12.91,4.82s10.03-1.61,13.06-4.82    c3.03-3.22,4.54-7.81,4.54-13.77v-59.6h24.27v59.46c0,8.89-1.89,16.42-5.68,22.56c-3.79,6.15-8.87,10.79-15.26,13.91    s-13.51,4.68-21.36,4.68c-7.85,0-14.88-1.54-21.07-4.61c-6.2-3.07-11.09-7.71-14.69-13.91c-3.6-6.2-5.39-13.74-5.39-22.63v-59.46    H1423.22z"/>
		<path d="M1564.27,1566.65c7.85,4.16,13.93,10,18.24,17.53c4.3,7.52,6.46,16.2,6.46,26.04c0,9.75-2.15,18.4-6.46,25.97    c-4.31,7.57-10.41,13.43-18.31,17.6c-7.9,4.16-17.05,6.24-27.46,6.24h-37.32v-99.62h37.32    C1547.25,1560.4,1556.42,1562.48,1564.27,1566.65z M1556.61,1631.5c5.11-5.01,7.66-12.11,7.66-21.29c0-9.17-2.55-16.32-7.66-21.43    c-5.11-5.11-12.25-7.66-21.43-7.66h-11.49v57.9h11.49C1544.36,1639.02,1551.5,1636.52,1556.61,1631.5z"/>
		<path d="M1626.86,1579.84V1600h32.5v18.73h-32.5v21.85h36.75v19.44h-61.02v-99.62h61.02v19.44H1626.86z"/>
		<path d="M1768.48,1660.02h-24.27l-40.59-61.45v61.45h-24.27v-99.62h24.27l40.59,61.73v-61.73h24.27V1660.02z"/>
		<path d="M1857.74,1560.4v19.44h-26.4v80.18h-24.27v-80.18h-26.39v-19.44H1857.74z"/>
		<path d="M1886.4,1657.47c-5.77-2.36-10.38-5.86-13.84-10.5c-3.46-4.63-5.28-10.22-5.46-16.75h25.83c0.38,3.69,1.65,6.51,3.83,8.44    c2.18,1.94,5.01,2.91,8.51,2.91c3.59,0,6.43-0.83,8.51-2.48c2.08-1.65,3.12-3.95,3.12-6.88c0-2.46-0.83-4.49-2.48-6.1    c-1.66-1.61-3.69-2.93-6.1-3.97c-2.41-1.04-5.84-2.22-10.29-3.55c-6.43-1.99-11.69-3.97-15.75-5.96c-4.07-1.99-7.57-4.92-10.5-8.8    c-2.93-3.88-4.4-8.94-4.4-15.18c0-9.27,3.36-16.53,10.08-21.78c6.72-5.25,15.47-7.88,26.25-7.88c10.97,0,19.82,2.63,26.54,7.88    c6.72,5.25,10.31,12.56,10.79,21.93h-26.25c-0.19-3.22-1.37-5.75-3.55-7.59c-2.18-1.84-4.97-2.77-8.37-2.77    c-2.93,0-5.3,0.78-7.1,2.34c-1.8,1.56-2.7,3.81-2.7,6.74c0,3.22,1.51,5.72,4.54,7.52c3.03,1.8,7.76,3.74,14.19,5.82    c6.43,2.18,11.66,4.26,15.68,6.24c4.02,1.99,7.5,4.87,10.43,8.66c2.93,3.78,4.4,8.66,4.4,14.62c0,5.68-1.44,10.83-4.33,15.47    c-2.89,4.64-7.07,8.33-12.56,11.07c-5.49,2.75-11.97,4.12-19.44,4.12C1898.7,1661.02,1892.17,1659.83,1886.4,1657.47z"/>
		<path d="M1962.75,1560.4h24.83l-15.89,38.03h-16.32L1962.75,1560.4z"/>
	</g>
	<g>
		<path d="M523,1750.93h-34.69l-6.98,18.75h-5.1l26.88-71.46h5.21l26.77,71.46h-5.1L523,1750.93z M521.54,1746.97l-15.83-42.61    l-15.94,42.61H521.54z"/>
		<path d="M637.28,1767.91c-3.54-1.67-6.3-3.92-8.28-6.77c-1.98-2.85-3.11-6.01-3.39-9.48h4.9c0.56,3.82,2.34,7.22,5.36,10.21    c3.02,2.99,7.62,4.48,13.8,4.48c3.61,0,6.75-0.66,9.43-1.98c2.67-1.32,4.74-3.13,6.2-5.42s2.19-4.83,2.19-7.6    c0-3.54-0.85-6.35-2.55-8.44c-1.7-2.08-3.82-3.65-6.35-4.69c-2.54-1.04-5.96-2.15-10.26-3.33c-4.72-1.25-8.53-2.5-11.41-3.75    c-2.88-1.25-5.31-3.18-7.29-5.78s-2.97-6.16-2.97-10.68c0-3.47,0.92-6.65,2.76-9.53c1.84-2.88,4.46-5.16,7.86-6.82    c3.4-1.67,7.33-2.5,11.77-2.5c6.46,0,11.67,1.6,15.63,4.79c3.96,3.19,6.32,7.12,7.08,11.77h-5c-0.42-1.88-1.34-3.78-2.76-5.73    c-1.42-1.94-3.44-3.56-6.04-4.84c-2.6-1.28-5.71-1.93-9.32-1.93c-4.86,0-8.96,1.34-12.29,4.01c-3.33,2.67-5,6.23-5,10.68    c0,3.54,0.87,6.37,2.6,8.49c1.73,2.12,3.87,3.72,6.41,4.79c2.53,1.08,5.95,2.17,10.26,3.28c4.79,1.32,8.59,2.59,11.41,3.8    c2.81,1.22,5.21,3.13,7.19,5.73c1.98,2.6,2.97,6.13,2.97,10.57c0,3.27-0.87,6.35-2.6,9.27c-1.74,2.92-4.29,5.3-7.66,7.14    c-3.37,1.84-7.45,2.76-12.24,2.76C644.95,1770.41,640.82,1769.57,637.28,1767.91z"/>
		<path d="M776.65,1767.91c-3.54-1.67-6.3-3.92-8.28-6.77c-1.98-2.85-3.11-6.01-3.39-9.48h4.9c0.56,3.82,2.34,7.22,5.36,10.21    c3.02,2.99,7.62,4.48,13.8,4.48c3.61,0,6.75-0.66,9.43-1.98c2.67-1.32,4.74-3.13,6.2-5.42s2.19-4.83,2.19-7.6    c0-3.54-0.85-6.35-2.55-8.44c-1.7-2.08-3.82-3.65-6.35-4.69c-2.54-1.04-5.96-2.15-10.26-3.33c-4.72-1.25-8.53-2.5-11.41-3.75    c-2.88-1.25-5.31-3.18-7.29-5.78s-2.97-6.16-2.97-10.68c0-3.47,0.92-6.65,2.76-9.53c1.84-2.88,4.46-5.16,7.86-6.82    c3.4-1.67,7.33-2.5,11.77-2.5c6.46,0,11.67,1.6,15.63,4.79c3.96,3.19,6.32,7.12,7.08,11.77h-5c-0.42-1.88-1.34-3.78-2.76-5.73    c-1.42-1.94-3.44-3.56-6.04-4.84c-2.6-1.28-5.71-1.93-9.32-1.93c-4.86,0-8.96,1.34-12.29,4.01c-3.33,2.67-5,6.23-5,10.68    c0,3.54,0.87,6.37,2.6,8.49c1.73,2.12,3.87,3.72,6.41,4.79c2.53,1.08,5.95,2.17,10.26,3.28c4.79,1.32,8.59,2.59,11.41,3.8    c2.81,1.22,5.21,3.13,7.19,5.73c1.98,2.6,2.97,6.13,2.97,10.57c0,3.27-0.87,6.35-2.6,9.27c-1.74,2.92-4.29,5.3-7.66,7.14    c-3.37,1.84-7.45,2.76-12.24,2.76C784.33,1770.41,780.2,1769.57,776.65,1767.91z"/>
		<path d="M921.66,1765.77c-5.42-3.16-9.65-7.59-12.71-13.28c-3.06-5.69-4.58-12.12-4.58-19.27c0-7.22,1.53-13.66,4.58-19.32    c3.06-5.66,7.29-10.07,12.71-13.23c5.42-3.16,11.49-4.74,18.23-4.74c6.74,0,12.81,1.58,18.23,4.74    c5.42,3.16,9.65,7.57,12.71,13.23c3.06,5.66,4.58,12.1,4.58,19.32c0,7.15-1.53,13.58-4.58,19.27c-3.06,5.7-7.29,10.12-12.71,13.28    c-5.42,3.16-11.49,4.74-18.23,4.74C933.15,1770.51,927.07,1768.93,921.66,1765.77z M955.51,1762.28    c4.65-2.71,8.32-6.56,10.99-11.56c2.67-5,4.01-10.83,4.01-17.5c0-6.73-1.34-12.6-4.01-17.6c-2.67-5-6.34-8.85-10.99-11.56    c-4.65-2.71-9.86-4.06-15.63-4.06c-5.77,0-10.97,1.35-15.63,4.06c-4.65,2.71-8.33,6.56-11.04,11.56s-4.06,10.87-4.06,17.6    c0,6.67,1.35,12.5,4.06,17.5s6.39,8.85,11.04,11.56c4.65,2.71,9.86,4.06,15.63,4.06C945.65,1766.34,950.86,1764.99,955.51,1762.28    z"/>
		<path d="M1072.86,1713.89c3.02-5.66,7.19-10.09,12.5-13.28c5.31-3.19,11.27-4.79,17.86-4.79c8.33,0,15.35,1.95,21.04,5.83    c5.69,3.89,9.86,9.34,12.5,16.36h-5.42c-2.08-5.56-5.54-9.95-10.36-13.18c-4.83-3.23-10.75-4.84-17.76-4.84    c-5.63,0-10.73,1.34-15.31,4.01c-4.58,2.67-8.2,6.53-10.83,11.56c-2.64,5.04-3.96,10.92-3.96,17.66c0,6.67,1.32,12.48,3.96,17.45    c2.64,4.97,6.25,8.8,10.83,11.51c4.58,2.71,9.69,4.06,15.31,4.06c7.01,0,12.93-1.62,17.76-4.84c4.83-3.23,8.28-7.62,10.36-13.18    h5.42c-2.64,7.02-6.81,12.47-12.5,16.35c-5.7,3.89-12.71,5.83-21.04,5.83c-6.6,0-12.55-1.58-17.86-4.74    c-5.31-3.16-9.48-7.57-12.5-13.23c-3.02-5.66-4.53-12.07-4.53-19.22C1068.33,1726,1069.84,1719.56,1072.86,1713.89z"/>
		<path d="M1237.81,1696.55v73.13h-4.69v-73.13H1237.81z"/>
		<path d="M1378.13,1750.93h-34.69l-6.98,18.75h-5.1l26.88-71.46h5.21l26.77,71.46h-5.1L1378.13,1750.93z M1376.67,1746.97    l-15.83-42.61l-15.94,42.61H1376.67z"/>
		<path d="M1524.07,1696.55v3.96h-20.83v69.17h-4.69v-69.17h-20.83v-3.96H1524.07z"/>
		<path d="M1621.57,1696.55v73.13h-4.69v-73.13H1621.57z"/>
		<path d="M1734.8,1765.77c-5.42-3.16-9.65-7.59-12.71-13.28c-3.06-5.69-4.58-12.12-4.58-19.27c0-7.22,1.53-13.66,4.58-19.32    c3.05-5.66,7.29-10.07,12.71-13.23c5.42-3.16,11.49-4.74,18.23-4.74c6.74,0,12.81,1.58,18.23,4.74    c5.42,3.16,9.65,7.57,12.71,13.23c3.05,5.66,4.58,12.1,4.58,19.32c0,7.15-1.53,13.58-4.58,19.27c-3.06,5.7-7.29,10.12-12.71,13.28    c-5.42,3.16-11.49,4.74-18.23,4.74C1746.3,1770.51,1740.22,1768.93,1734.8,1765.77z M1768.66,1762.28    c4.65-2.71,8.32-6.56,10.99-11.56c2.67-5,4.01-10.83,4.01-17.5c0-6.73-1.34-12.6-4.01-17.6c-2.67-5-6.34-8.85-10.99-11.56    c-4.65-2.71-9.86-4.06-15.63-4.06c-5.77,0-10.97,1.35-15.63,4.06c-4.65,2.71-8.33,6.56-11.04,11.56c-2.71,5-4.06,10.87-4.06,17.6    c0,6.67,1.35,12.5,4.06,17.5c2.71,5,6.39,8.85,11.04,11.56c4.65,2.71,9.86,4.06,15.63,4.06    C1758.8,1766.34,1764.01,1764.99,1768.66,1762.28z"/>
		<path d="M1936.68,1769.68H1932l-42.92-65.42v65.42h-4.69v-73.02h4.69l42.92,65.21v-65.21h4.69V1769.68z"/>
	</g>
	<g>
		<g>
			<g>
				<path class="st0" d="M1492.32,811.01c-0.18,0.04-0.37,0.1-0.55,0.16c-0.37-0.49-0.75-0.96-1.16-1.4      C1491.23,810.16,1491.8,810.56,1492.32,811.01z"/>
				<path class="st0" d="M1828.64,689.56v153.99H1665.3c0.96-9.17-0.57-18.05-4.09-26.7c-0.63-1.59-1.18-3.43-3.23-3.62      c-9.06-0.85-12.95-6.34-13.82-14.84c-0.18-1.65-1.28-3.17-1.87-4.8c-0.91-2.56-2.46-3.8-5.35-3.19      c-8.41,1.75-13.25-3.96-17.4-9.49c-5.85-7.8-17.01-9.06-23.37-1.89c-5.57,6.28-9.8,14.35-20.22,13.78      c-1.65-0.08-3.62,2.15-5.08,3.66c-4.96,5.08-9.88,9.55-17.56,4.59c-1.18-0.75-3.35-0.16-5.02,0.08c-2.13,0.3-3.84,0-4.88-2.07      c-1.22-2.4,0.61-3.6,2.03-4.8c2.17-1.85,3.94-3.86,4.82-6.67c0.77-2.44,0.63-4.86-0.83-6.77c-1.77-2.28-4-0.51-5.77,0.37      c-2.74,1.36-5.06,1.48-7.74-0.33c-6.85-4.59-15.1-5.41-22.68-8.07c5.04-8.66,3.58-13.66-5.14-17.84      c-0.93-0.45-1.73-1.24-2.58-1.87c-1.32-0.39-2.62-0.77-3.92-1.16c-3.78,1.32-7.46,3.6-11.65,1.26      c-5.93-2.56-11.71-6.14-18.54-2.8c-0.04,4.51,2.15,8.17,4.39,11.85c6.06,9.98,6.08,10.08-4.08,14.98      c-1.99,0.98-2.4,2.19-2.28,4.02c0.12,1.91,1.24,2.76,3.01,2.3c5.89-1.56,6.04,1.83,5.39,6.06c-0.81,5.24,0.16,10.22,2.46,14.98      c0.96,1.99,5.85,1.22,4.06,4.41c-1.14,2.01-4.76,0.71-7.26,0.63c-1.71-0.06-3.5-0.3-5.04-0.91c-3.35-1.36-4.51,0.2-5.47,3.15      c-1.12,3.48-1.91,6.99-2.52,11.06c-1.06,0.59-2.11,1.18-3.15,1.79c-1.65,0.96-3.25,1.93-4.86,2.97c-1.59,1-3.17,2.05-4.71,3.13      c-0.35-0.96,0.37-2.34,0.2-3.48c-0.57-4.35-1.54-9.37-6.97-9.88c-6.81-0.63-13.74-0.63-20.57-0.16c-6,0.41-12.72,13.6-8.9,17.7      c2.6,2.8,3.11,5.59,3.05,8.58h-154.13c25.46-65.03,70.48-117.21,139.66-147.26c101.62-44.16,196.16-25.81,282.54,51.32v-58.04      H1828.64z"/>
				<path class="st1" d="M1418.16,843.55c0,1.08-0.06,2.17-0.16,3.29c-0.57,7.19-2.21,14.17-4.15,21.12v0.02      c-2.03,2.89-3.98,5.83-5.83,8.86c-0.93,0.16-2.07,0.12-3.43-0.2c-2.15-0.51-4.57-0.75-4.88,3.11c-0.28,3.15-0.61,5.87,2.64,7.21      c-5.49,10.65-9.86,22.07-12.95,34.14c-2.09,0.28-4.19,0.12-6.26-0.79c-4.88-2.13-8.56-1.34-11.65,1.87      c-3.07,3.19,0.73,5.77,2.05,8.45c3.64,7.3,8.13,14.53,0.79,22.19c-0.55,1.69-1.08,3.37-1.61,5.06c2.03,4.29-0.67,5.37-3.19,6.42      c-38.72-25.79-77.49-51.6-118.79-79.12c3.62-14.37,8.03-28.29,13.27-41.64H1418.16z"/>
				<path d="M1334.66,715.22c-26.71,33.49-53.35,66.9-78.16,98.04c-20.69-2.85-42.21-9.86-62.45-7.17      c-11.52,1.52-26.38,11.73-32.86,22.29c-23.33-46.17-57.96-85.68-100.26-114.89c3.13,2.01,6.22,4.11,9.31,6.28      C1169.3,660.8,1271.29,659.9,1334.66,715.22z"/>
				<path d="M1253.14,1068.49c-0.04-0.02-0.08-0.06-0.12-0.1c-4.53-3.98-9.29-7.72-14.19-11.28c-15.85-11.56-33.33-21.3-50.26-31.48      c3.64-18.94,5.55-38.51,5.55-58.53c0-34.37-5.63-67.43-16.01-98.28c0.55,0.41,1.1,0.77,1.63,1.1      c20.36,12.72,41.95,23.51,63.55,34.31c-4.25,20.63-6.48,42.01-6.48,63.9c0,30.91,4.45,60.77,12.76,89      C1250.68,1060.93,1251.88,1064.73,1253.14,1068.49z"/>
				<path class="st2" d="M1178.1,868.81c-10.67-7.74-22.29-26.44-19.43-35.18c0.57-1.73,1.42-3.5,2.5-5.24      c-23.33-46.17-57.96-85.68-100.26-114.89c-47.25-30.36-99.91-42.44-157.08-38.88c-59.36,3.72-108.93,29.35-157.24,71.42      c-1.36,1.18-2.7,2.38-4.06,3.58v-60.48H601.71v772.72h143.02v-264.2c0.65,0.53,1.28,1.04,1.87,1.52      c6.56,5.37,10.06,8.17,13.47,11.1c151.19,129.28,371.92,38.23,421.41-155.8c1.48-5.87-2.11-16.91-6.87-19.88      c-42.23-26.36-85.24-51.42-128.4-77.09c0,9.82,0.89,22.97-0.12,35.97c-7.86,100.15-103.28,167.04-198.68,139.54      c-48.45-13.98-84.53-51.97-100.8-100.6c-9.63-28.74-12.36-61.19-6.65-94.59c1.61-9.43,3.84-18.45,6.65-27.05      c18.7-57.56,63.27-95.95,123.42-104.75c69.77-10.22,127.16,23.53,163.42,88.18c16.54,29.53,40.73,56.54,66.66,78.51      c24.86,21.08,56.78,33.68,85.07,50.87c1.12,0.69,2.26,1.36,3.39,2.03c3.64-18.94,5.55-38.51,5.55-58.53      C1194.12,932.73,1188.49,899.66,1178.1,868.81z"/>
				<path d="M1355.78,1214.7c-3.79,3.67-9.15,7.65-11.93,9.64c-1.12,0.8-1.82,1.28-1.82,1.28c-83.92,58.22-172.9,56.14-264.87,16.94      c29.16-34.43,56.31-67.29,84.71-99.02c3.88-4.33,13.96-3.37,21.25-4.31c20.65-2.66,43.5-0.32,61.52-8.6      c13.27-6.09,21.22-15.03,23.7-24.99C1289.05,1148.24,1319.07,1185.48,1355.78,1214.7z"/>
				<path class="st1" d="M1380.26,1047.96c-3.19,2.48-5,7.44-2.8,9.15h-127.9c-8.31-28.23-12.76-58.08-12.76-89      c0-21.89,2.24-43.27,6.48-63.9c11.81,5.89,23.64,11.79,35.26,18.01c39.92,21.34,77.9,45.24,102.02,85.24      c-0.3,0.89-0.98,1.71-2.01,2.42c-6.1,4.29-8.72,10.16-7.42,17.64c1.61,2.99,3.09,6.44,6.22,7.78      C1384.51,1038.35,1384,1042.68,1380.26,1047.96z"/>
			</g>
			<g>
				<path class="st1" d="M1642.86,843.55c5.45,4.98,10.51,10.39,15.14,16.22c2.48,3.11,4.82,6.34,7.03,9.67      c0.02,0.04,0.06,0.06,0.06,0.08c1.97,2.11,3.86,4.29,6,6.18c3.52,3.09,4.67,6.46,3.5,10.43c7.07,14.51,12.01,30.67,14.41,48.27      c0.49,3.52,0.87,7.09,1.18,10.67c1.4,1.71,2.52,3.58,2.97,5.85c1.28,6.46,0.08,12.34-2.11,17.88c0,0.02,0,0.02,0,0.02      c-1.28,3.21-2.89,6.32-4.53,9.39c-1.56,2.93-4.55,0.18-5.47-2.4c-1.69-4.72-4.84-7.19-9.82-7.42c-1.71-0.08-3.68,0.67-2.85,2.3      c4.23,8.21-3.98,7.87-7.21,10.87c-0.89,0.81-2.28,1.08-3.43,1.61c-3.05-0.3-5.2,1.46-7.36,3.25l-0.41,0.08      c-1.08-0.22-1.95,0.12-2.62,1.02c-0.85,0.26-1.69,0.51-2.54,0.77c-4.13,1.26-5.06,6.99-10,7.11l-0.24,0.16      c-1.42,0.12-2.64,0.49-2.78,2.19c-0.77,0.91-1.52,1.81-2.3,2.72c-0.51,0.1-1.02,0.22-1.52,0.35c-1.71-0.04-3.48-0.18-3.9,2.11      c-0.41,0.79-0.81,1.59-1.22,2.38c-5.32-0.08-10.61,0.06-15.41,2.82c-0.43,0.2-0.87,0.41-1.3,0.63      c-1.32,0.06-1.97,0.85-2.24,2.05c-1.59,0.71-2.56,1.95-3.05,3.58c-2.19,3.33-4.37,4.25-6.73,0.12      c-0.53-0.93-1.54-1.71-2.68-1.34c-1.34,0.45-1.26,1.87-0.71,2.68c2.95,4.19,2.99,10.53,9.04,12.46      c1.77,1.83,3.52,3.68,5.28,5.53c1.14,2.17,1.16,4.41,0.26,6.67l-0.35,0.24l0.06,0.43c-2.24,1.77-2.72,4.02-1.87,6.67      c0.49,0.2,0.98,0.43,1.46,0.63c1.4,3.39,3.25,6.36,5.39,9.04h64.73c0.08-0.14,0.14-0.28,0.2-0.43h153.71V843.55H1642.86z"/>
				<path class="st3" d="M1674.93,1057.1c-0.07,0.15-0.14,0.29-0.21,0.43H1610c6.42,8.01,15.5,13.46,23.08,20.3      c2.69,2.44,5.92,4.27,7.67,7.63c1.13,2.15,3.21,2.46,5.34,3.06c2.07,0.61,3.94,1.57,5.53,2.83c4.92,3.86,7.23,10.36,5.51,16.73      c-1.08,3.92-3.21,6.32-7.44,4.47c-3.86-1.71-5.33,0.02-6.75,3.27c-3.82,8.72-9.94,15.57-18.39,20c-5,2.64-5.33,5.55-1.77,9.55      c2.93,3.29,5.24,6.85,3.96,11.62c-0.52,2.04,0.94,2.97,2.22,4.21c3.41,3.37,2.34,7.66,1.32,11.5c-0.81,3.09-6.54,2.61-8.6-1.7      c-2.62-5.55-5.73-7.2-11.38-5.27c-1.87,0.65-3.7-0.65-5.38-1.64c-1.71-1.04-4.37-2.01-5.31-0.31      c-2.84,5.06-7.68,3.66-11.87,4.55c-8.17,1.77-16.19,3.74-22.86,9.52c-5.28,4.55-13.07,3.47-18.01-1.37      c-4.2-4.08-9.65-4.04-15.04-3.53c-1.83,0.18-1.93,2.03-2.44,3.43c-0.89,2.4-1.42,5.17-2.98,7.03c-1.97,2.36-3.64,7.81-7.87,0.55      c-2.36-4.04-4.98-10.52-10.79-11.05c-9.45-0.9-16.3-6.4-23.72-11.1c-0.91-0.59-2.01-1.26-2.84-0.18      c-6.45,8.25-12.91,1.08-19.35,0.08c-0.2-0.02-0.37-0.22-0.53-0.37c-2.21-1.95-4.84-3.72-7.32-1.05      c-2.98,3.23,2.83,3.43,2.59,6.03c-0.29,0.25-0.59,0.77-0.9,0.75c-10.97-0.22-21.68,4.58-32.84,1.43      c-4.78-1.34-5.83-3.99-5.53-8.52c1.2-17.76,8.17-34.04,12.87-50.89c1.03-3.76,4.14-6.18,6.82-8.86      c-7.41-6.56-14.16-13.84-20.1-21.72c0-0.02-0.02-0.02-0.02-0.02c-1.26-0.94-3.06,0.12-4.61,0.34c-4.57,0.65-9.27,1.99-12.6-3.13      c-1.14-1.73-3.5-1.77-5.24-0.49c-2.91,2.14-4.11,0.1-5.63-1.85c-3.95-5.14-4.9-12.05-11.16-16.09      c-0.06-0.04-0.12-0.08-0.18-0.17h-127.9c1.12,3.83,2.32,7.63,3.58,11.39c13.21,11.66,18.17,25.14,15.2,37.15      c20.71,42.6,50.73,79.84,87.44,109.06c10.95,8.72,22.51,16.73,34.58,23.95c101.33,52.36,199.96,41.73,297.68-40.91v57.44h140.6      V1057.1H1674.93z M1670.12,1066.48c0.56-0.99,1.09-1.99,1.63-2.99C1671.21,1064.49,1670.69,1065.49,1670.12,1066.48z"/>
			</g>
			<path class="st2" d="M799.38,975.96c6.19-2.73,12.37-5.47,18.56-8.18c14.64-6.4,29.24-12.9,43.97-19.09     c2.99-1.26,3.46-2.89,3.16-5.71c-2.24-21.54-4.38-43.09-6.52-64.65c-0.1-0.99-0.01-2-0.01-3c0.39-0.39,0.78-0.79,1.17-1.18     c0.55,1.1,0.88,2.4,1.67,3.29c14.35,16.24,28.81,32.38,43.1,48.68c1.96,2.24,3.47,2.41,6.05,1.26     c19.55-8.68,39.16-17.21,58.75-25.78c1.24-0.54,2.5-1.02,4.86-1.98c-12.65,21.6-24.75,42.27-36.97,63.15     c15.91,17.9,31.77,35.74,47.62,53.59c-0.14,0.27-0.27,0.55-0.41,0.82c-3.34-0.69-6.69-1.34-10.03-2.07     c-18.93-4.14-37.87-8.23-56.75-12.54c-2.8-0.64-3.96,0.18-5.27,2.44c-10.67,18.4-21.46,36.74-32.22,55.1     c-0.75,1.27-1.56,2.5-2.96,4.72c-0.51-4.37-0.96-7.67-1.28-10.98c-1.87-19.18-3.77-38.35-5.51-57.53     c-0.28-3.1-1.46-4.43-4.57-5.09c-22.14-4.71-44.24-9.62-66.36-14.46C799.42,976.48,799.4,976.22,799.38,975.96z"/>
		</g>
		<g>
			<path d="M1430.54,1378.39l-27.92-32.28v32.28h-11.83v-72.14h11.83v32.9l28.02-32.9h14.84l-31.35,36.12l31.86,36.02H1430.54z"/>
			<path d="M1470.86,1374.39c-5.64-3.15-10.1-7.54-13.39-13.18c-3.29-5.64-4.93-11.99-4.93-19.05c0-7.06,1.64-13.39,4.93-19     c3.29-5.6,7.75-9.98,13.39-13.13c5.64-3.15,11.81-4.72,18.53-4.72c6.78,0,12.99,1.58,18.63,4.72     c5.64,3.15,10.08,7.53,13.34,13.13c3.25,5.61,4.88,11.94,4.88,19c0,7.06-1.63,13.41-4.88,19.05c-3.25,5.64-7.7,10.03-13.34,13.18     c-5.64,3.15-11.85,4.72-18.63,4.72C1482.68,1379.12,1476.5,1377.54,1470.86,1374.39z M1502.16,1365.57     c3.74-2.18,6.66-5.29,8.77-9.34c2.11-4.05,3.17-8.73,3.17-14.06c0-5.33-1.06-10-3.17-14.01c-2.11-4.01-5.03-7.09-8.77-9.24     c-3.74-2.14-7.99-3.22-12.77-3.22s-9.03,1.07-12.77,3.22c-3.74,2.15-6.66,5.22-8.77,9.24c-2.11,4.01-3.17,8.68-3.17,14.01     c0,5.33,1.05,10.02,3.17,14.06c2.11,4.05,5.03,7.16,8.77,9.34c3.74,2.18,7.99,3.27,12.77,3.27S1498.42,1367.75,1502.16,1365.57z"/>
			<path d="M1586.33,1347.46c2.7,3.39,4.05,7.23,4.05,11.52c0,3.67-0.95,6.97-2.85,9.91c-1.9,2.94-4.65,5.26-8.25,6.95     c-3.6,1.7-7.78,2.54-12.56,2.54h-28.86v-72.14h27.51c4.91,0,9.13,0.83,12.66,2.49c3.53,1.66,6.19,3.89,7.99,6.69     c1.8,2.8,2.7,5.93,2.7,9.39c0,4.15-1.11,7.61-3.32,10.38c-2.22,2.77-5.19,4.81-8.93,6.12     C1580.35,1342.03,1583.63,1344.07,1586.33,1347.46z M1549.69,1336.56h14.63c3.87,0,6.9-0.88,9.08-2.65s3.27-4.31,3.27-7.63     c0-3.25-1.09-5.79-3.27-7.63c-2.18-1.83-5.21-2.75-9.08-2.75h-14.63V1336.56z M1575.12,1365.83c2.28-1.94,3.42-4.64,3.42-8.1     c0-3.53-1.21-6.33-3.63-8.41c-2.42-2.08-5.64-3.11-9.65-3.11h-15.57v22.52h15.98     C1569.69,1368.74,1572.84,1367.77,1575.12,1365.83z"/>
			<path d="M1615.08,1368.84h24.39v9.55h-36.22v-72.14h11.83V1368.84z"/>
			<path d="M1661.16,1315.8v21.17h24.91v9.65h-24.91v22.11h28.02v9.65h-39.86v-72.24h39.86v9.65H1661.16z"/>
			<path d="M1762.98,1378.39h-11.83l-35.6-53.87v53.87h-11.83v-72.24h11.83l35.6,53.76v-53.76h11.83V1378.39z"/>
			<path d="M1789.97,1368.11h33.53v10.28h-47.54v-9.24l33.42-52.62h-33.42v-10.28h47.54v9.24L1789.97,1368.11z"/>
		</g>
	</g>
</g>
</svg>